# xmcd CD database file
#
# Track frame offsets:
#	150
#	20130
#	38120
#	53125
#	74567
#	96772
#	117767
#	134265
#	149190
#	170040
#
# Disc length: 2621 seconds
#
# Revision: 0
# Processed by: cddbd v1.5.2PL0 Copyright (c) Steve Scherf et al.
# Submitted via: CDex 1.51
#
DISCID=9a0a3b0a
DTITLE=King Cotton - Ultra Blues
DYEAR=2001
DGENRE=Blues
TTITLE0=If Ya Got It
TTITLE1=Ultra Blues
TTITLE2=Blown Up Blues
TTITLE3=Signs Of Love
TTITLE4=Gulf Of Mexico
TTITLE5=Voodoo Woman
TTITLE6=One Way Track
TTITLE7=Modern Life
TTITLE8=Queen Of Goodbye
TTITLE9=Cold Understanding
EXTD=YEAR: 2001
EXTT0=
EXTT1=
EXTT2=
EXTT3=
EXTT4=
EXTT5=
EXTT6=
EXTT7=
EXTT8=
EXTT9=
PLAYORDER=
